<svg width="23" height="18" viewBox="0 0 23 18" fill="none" xmlns="http://www.w3.org/2000/svg">
<path d="M21.85 -0.0078125H1.15C0.514895 -0.0078125 0 0.507037 0 1.14219V16.4755C0 17.1106 0.51485 17.6255 1.15 17.6255H21.85C22.4851 17.6255 23 17.1107 23 16.4755V1.14219C23 0.507082 22.4851 -0.0078125 21.85 -0.0078125ZM22.2333 16.4755C22.2333 16.6873 22.0617 16.8589 21.85 16.8589H1.15C0.938283 16.8589 0.766682 16.6873 0.766682 16.4755V1.14219C0.766682 0.930471 0.938283 0.758869 1.15 0.758869H21.85C22.0617 0.758869 22.2333 0.930471 22.2333 1.14219V16.4755Z" fill="white"/>
<path d="M21.1166 1.52687C21.0153 1.51802 20.9146 1.54978 20.8368 1.61519L11.9932 9.04416C11.708 9.2839 11.2917 9.2839 11.0065 9.04416L2.16306 1.61514C2.05817 1.5271 1.91424 1.50167 1.78553 1.54848C1.65683 1.59529 1.56286 1.70723 1.53905 1.84213C1.51524 1.97703 1.56519 2.11436 1.67009 2.20241L10.5136 9.63102C11.0836 10.1109 11.9162 10.1109 12.4862 9.63102L21.3297 2.20245C21.4076 2.13709 21.4563 2.04347 21.4651 1.94217C21.474 1.84087 21.4422 1.74021 21.3768 1.66236C21.3115 1.58442 21.2179 1.53572 21.1166 1.52687Z" fill="white"/>
<path d="M7.37275 9.57952C7.23705 9.54925 7.09563 9.5948 7.00309 9.69857L1.63641 15.4486C1.53929 15.548 1.50362 15.6923 1.54324 15.8256C1.58286 15.9588 1.69153 16.0602 1.82719 16.0905C1.9629 16.1207 2.10432 16.0752 2.19686 15.9714L7.56354 10.2214C7.66066 10.122 7.69633 9.97767 7.65671 9.84443C7.61709 9.71119 7.50846 9.6098 7.37275 9.57952Z" fill="white"/>
<path d="M15.9976 9.69857C15.9051 9.5948 15.7637 9.54925 15.628 9.57952C15.4923 9.6098 15.3836 9.71119 15.344 9.84443C15.3044 9.97771 15.3401 10.122 15.4372 10.2214L20.8039 15.9714C20.9494 16.1205 21.1873 16.126 21.3397 15.9839C21.492 15.8418 21.5029 15.604 21.3643 15.4485L15.9976 9.69857Z" fill="white"/>
</svg>
