<svg width="156" height="25" viewBox="0 0 156 25" fill="none" xmlns="http://www.w3.org/2000/svg">
<path d="M6.76792 12.454L2.02585 7.85039C1.07974 6.83505 0.606687 5.86587 0.606687 4.94284C0.606687 3.81212 1.09128 2.80833 2.06046 1.93145C3.12195 0.985338 4.06805 0.512285 4.89878 0.512285C5.91412 0.512285 6.80254 0.962263 7.56404 1.86222L11.9946 7.53886L15.6636 2.62372C16.7944 1.23917 18.0635 0.5469 19.4711 0.5469C20.4403 0.5469 21.3403 0.950726 22.171 1.75838C23.1171 2.72756 23.5902 3.65059 23.5902 4.52747C23.5902 5.54281 22.9094 6.75429 21.548 8.16191L17.4635 12.0386L22.1364 16.9192C23.1056 18.0037 23.5902 18.9614 23.5902 19.7921C23.5902 20.9459 23.1056 21.9497 22.1364 22.8035C21.0749 23.7727 20.1288 24.2573 19.2981 24.2573C18.2597 24.2573 17.3712 23.8073 16.6328 22.9073L12.1677 17.0922L8.49861 22.1112C7.41404 23.5188 6.15641 24.2227 4.72571 24.2227C3.77961 24.2227 2.87965 23.7958 2.02585 22.942C1.07974 21.9958 0.606687 21.0843 0.606687 20.2075C0.606687 19.2614 1.27588 18.0499 2.61428 16.573L6.76792 12.454ZM39.0173 19.3767C39.8019 19.3767 40.4711 19.0306 41.0249 18.3383C41.6018 17.6461 42.0056 16.7923 42.2364 15.7769C42.4902 14.7616 42.6171 13.677 42.6171 12.5232C42.6171 11.3464 42.4902 10.2387 42.2364 9.20032C41.9826 8.13883 41.5672 7.23888 40.9903 6.50045C40.4365 5.76203 39.7788 5.39281 39.0173 5.39281C38.2789 5.39281 37.6328 5.76203 37.079 6.50045C36.5251 7.23888 36.1098 8.13883 35.8329 9.20032C35.556 10.2618 35.4175 11.3694 35.4175 12.5232C35.4175 13.677 35.5444 14.7616 35.7983 15.7769C36.0752 16.7923 36.4905 17.6461 37.0443 18.3383C37.6212 19.0306 38.2789 19.3767 39.0173 19.3767ZM45.1439 23.0804C43.321 23.9804 41.2672 24.4303 38.9827 24.4303C36.7213 24.4303 34.6791 23.9804 32.8561 23.0804C31.0562 22.1574 29.6139 20.7844 28.5294 18.9614C27.4448 17.1384 26.9025 14.9923 26.9025 12.5232C26.9025 8.78496 28.0217 5.81972 30.2601 3.62752C32.5215 1.41224 35.4406 0.304603 39.0173 0.304603C42.5941 0.304603 45.5132 1.41224 47.7746 3.62752C50.036 5.81972 51.1667 8.78496 51.1667 12.5232C51.1667 14.9923 50.6129 17.1384 49.5053 18.9614C48.4207 20.7844 46.9669 22.1574 45.1439 23.0804ZM64.6899 8.61189C64.6899 7.48117 63.6399 6.91582 61.54 6.91582C61.1016 6.91582 60.5016 6.96197 59.7401 7.05427C59.0017 7.1235 58.4594 7.15811 58.1133 7.15811C56.4518 7.15811 55.6211 6.16585 55.6211 4.18133C55.6211 2.12759 58.021 1.10072 62.8207 1.10072C65.9359 1.10072 68.2666 1.60839 69.8127 2.62372C71.3588 3.63905 72.1318 4.96591 72.1318 6.60429C72.1318 8.8888 71.1395 10.7118 69.155 12.0733C70.4934 12.7886 71.428 13.5386 71.9587 14.3231C72.5125 15.0846 72.7895 16.1923 72.7895 17.6461C72.7895 19.6537 71.9933 21.292 70.4011 22.5612C68.832 23.8073 66.7205 24.4303 64.0668 24.4303C60.7439 24.4303 58.3556 24.0957 56.9018 23.4265C55.4711 22.7343 54.7557 21.6959 54.7557 20.3113C54.7557 19.1575 54.9865 18.3729 55.448 17.9576C55.9095 17.5191 56.5556 17.2999 57.3864 17.2999C57.8017 17.2999 58.4479 17.3461 59.3247 17.4384C60.2016 17.5307 60.8708 17.5768 61.3323 17.5768C63.8476 17.5768 65.1052 17.1153 65.1052 16.1923C65.1052 15.5692 64.8629 15.1423 64.3783 14.9116C63.8937 14.6577 62.9822 14.5308 61.6439 14.5308C60.3055 14.5308 59.3593 14.3578 58.8055 14.0116C58.2517 13.6655 57.9748 13.0194 57.9748 12.0733C57.9748 10.6426 58.9209 9.92721 60.8131 9.92721C62.0361 9.92721 62.9361 9.86952 63.513 9.75414C64.113 9.63876 64.4591 9.51184 64.5514 9.37339C64.6437 9.21186 64.6899 8.95802 64.6899 8.61189ZM96.6383 1.44685C95.9691 0.800732 94.9653 0.477671 93.6269 0.477671C93.0269 0.477671 92.5077 0.523823 92.0693 0.616126C91.6539 0.70843 91.2385 0.881498 90.8232 1.13533C90.4309 1.38917 90.1309 1.78145 89.9232 2.3122C89.7386 2.84294 89.6463 3.5006 89.6463 4.28518V6.77736C89.6463 7.26195 89.6117 7.65424 89.5425 7.95423C89.4963 8.25421 89.3809 8.5542 89.1963 8.85418C89.0348 9.15417 88.7694 9.37339 88.4002 9.51184C88.031 9.6503 87.558 9.71952 86.9811 9.71952C86.4042 9.71952 85.9311 9.62722 85.5619 9.44262C85.1927 9.28108 84.8927 8.9811 84.6619 8.54266C84.4543 8.10422 84.3389 7.51579 84.3158 6.77736V4.31979C84.3158 2.77371 83.9581 1.74684 83.2428 1.23917C82.5505 0.731505 81.5236 0.477671 80.1622 0.477671C79.0545 0.477671 78.143 0.86996 77.4277 1.65454C76.6893 2.41604 76.32 3.4083 76.32 4.63131V6.1197C76.32 9.28109 77.1739 11.6464 78.8815 13.2155C80.6121 14.7847 83.312 15.5692 86.9811 15.5692C87.4887 15.5692 87.9964 15.5462 88.5041 15.5V15.95V16.4L88.4694 16.4692C88.4694 17.5999 88.1695 18.4652 87.5695 19.0652C86.9695 19.6883 85.9426 19.9998 84.4889 19.9998C83.912 19.9998 83.3351 19.9075 82.7582 19.7229C82.1582 19.5383 81.639 19.3306 81.2006 19.0998C80.7852 18.8691 80.3352 18.6614 79.8506 18.4768C79.3891 18.2922 78.9853 18.1999 78.6392 18.1999C78.1546 18.1999 77.7623 18.3499 77.4623 18.6499C77.1854 18.9729 77.0469 19.3191 77.0469 19.6883C77.0469 20.0575 77.2546 20.4959 77.67 21.0036C78.0623 21.5113 78.6161 22.0305 79.3314 22.5612C80.0468 23.0689 81.016 23.4958 82.239 23.8419C83.462 24.2111 84.7889 24.3957 86.2196 24.3957C87.9964 24.3957 89.5309 24.1996 90.8232 23.8073C92.1154 23.415 93.1769 22.815 94.0076 22.0074C94.8384 21.2228 95.4845 20.3228 95.946 19.3075C96.4075 18.2691 96.7537 17.0461 96.9844 15.6385C97.0767 15.0385 97.2152 13.4347 97.3998 10.8272C97.5613 8.33498 97.6421 6.76582 97.6421 6.1197V4.63131C97.6421 3.15446 97.3075 2.09298 96.6383 1.44685ZM123.028 11.7617C122.682 12.5925 122.185 13.0078 121.539 13.0078C120.916 13.0078 120.409 12.6848 120.016 12.0386V5.6005C120.409 4.9313 120.916 4.5967 121.539 4.5967C122.139 4.5967 122.624 5.03514 122.993 5.91202C123.362 6.7889 123.547 7.7927 123.547 8.92341C123.547 9.9849 123.374 10.931 123.028 11.7617ZM110.844 13.0078C110.221 13.0078 109.736 12.5925 109.39 11.7617C109.044 10.931 108.871 9.9849 108.871 8.92341C108.871 7.7927 109.055 6.7889 109.425 5.91202C109.794 5.03514 110.278 4.5967 110.878 4.5967C111.501 4.5967 112.009 4.91976 112.401 5.56588V8.26575V12.0386C112.009 12.6848 111.49 13.0078 110.844 13.0078ZM129.293 2.62372C128.116 1.07764 126.604 0.304603 124.758 0.304603C122.935 0.304603 121.228 0.92765 119.636 2.17374C119.359 1.52762 118.943 1.08918 118.389 0.858423C117.836 0.650741 117.109 0.5469 116.209 0.5469H115.932C115.147 0.569975 114.513 0.685354 114.028 0.893036C113.474 1.10072 113.059 1.52762 112.782 2.17374C111.19 0.92765 109.482 0.304603 107.659 0.304603C105.813 0.304603 104.302 1.07764 103.125 2.62372C101.948 4.1698 101.36 6.26969 101.36 8.92341C101.36 11.5079 101.96 13.5501 103.159 15.05C104.359 16.5269 105.871 17.2653 107.694 17.2653C109.448 17.2653 111.017 16.873 112.401 16.0884V19.0652C112.401 20.0344 112.482 20.8536 112.644 21.5228C112.805 22.2381 113.047 22.792 113.37 23.1842C113.901 23.8304 114.709 24.188 115.793 24.2573H116.036H116.209C117.478 24.2573 118.436 23.8534 119.082 23.0458C119.705 22.2612 120.016 20.9344 120.016 19.0652V16.0884C121.401 16.873 122.97 17.2653 124.724 17.2653C126.547 17.2653 128.058 16.5153 129.258 15.0154C130.458 13.5386 131.058 11.5079 131.058 8.92341C131.058 6.26969 130.47 4.1698 129.293 2.62372ZM144.851 6.15432C143.859 6.15432 143.12 6.44276 142.636 7.01966C142.174 7.59655 141.943 8.62342 141.943 10.1003V14.1847H147.689V10.031C147.689 9.06186 147.574 8.28883 147.343 7.71193C147.112 7.11196 146.789 6.70813 146.374 6.50045C145.982 6.26969 145.474 6.15432 144.851 6.15432ZM147.689 18.9614H141.943V20.7959C141.943 21.9728 141.632 22.8381 141.009 23.3919C140.386 23.9457 139.313 24.2227 137.79 24.2227C137.143 24.2227 136.613 24.1304 136.197 23.9457C135.782 23.7611 135.413 23.4496 135.09 23.0112C134.79 22.5727 134.559 21.9382 134.397 21.1074C134.259 20.2536 134.144 19.2383 134.051 18.0614C133.982 16.8615 133.947 15.35 133.947 13.527C133.947 11.9348 134.109 10.481 134.432 9.16571C134.778 7.82731 135.228 6.6966 135.782 5.77356C136.359 4.85053 137.005 4.04288 137.72 3.35061C138.436 2.63526 139.209 2.08144 140.04 1.68915C140.893 1.29686 141.712 1.00841 142.497 0.823808C143.305 0.616126 144.112 0.512285 144.92 0.512285C145.889 0.512285 146.847 0.65074 147.793 0.92765C148.739 1.18148 149.697 1.63146 150.666 2.27758C151.635 2.92371 152.477 3.73136 153.193 4.70054C153.931 5.64665 154.531 6.8812 154.993 8.4042C155.454 9.92721 155.685 11.6348 155.685 13.527C155.685 16.573 155.57 18.8345 155.339 20.3113C155.131 21.7651 154.762 22.7804 154.231 23.3573C153.723 23.9342 152.927 24.2227 151.843 24.2227C150.32 24.2227 149.247 23.9457 148.624 23.3919C148.001 22.8381 147.689 21.9728 147.689 20.7959V18.9614Z" fill="white"/>
</svg>
